<svg width="128" height="128" viewBox="0 0 128 128" fill="none" xmlns="http://www.w3.org/2000/svg">
<path d="M89.6514 31L74.3828 50.4912L66.1514 61L79.8252 61L66.7393 75.0742L56.5811 86L91.6836 86L85.2666 97L37.4219 97L53.5996 76.5303L61.9219 66L49.2939 66L61.7871 52.3965L71.7949 41.5L36.2305 41.5L42.2617 31L89.6514 31Z" stroke="#FBE125" stroke-width="13"/>
<path d="M97.8662 27L77.5322 52.958L74.3662 57L89.0068 57L69.6689 77.7979L65.7617 82L98.6475 82L87.5645 101L29.1611 101L50.4609 74.0498L53.6621 70L40.1914 70L58.8418 49.6914L62.6904 45.5L29.3193 45.5L39.9473 27L97.8662 27Z" stroke="#FB6703" stroke-width="5"/>
<path d="M107.107 22.5L104.574 25.7334L83.6074 52.5L99.335 52.5L96.209 55.8623L76.0908 77.5L106.482 77.5L104.728 80.5078L90.7275 104.508L90.1484 105.5L19.8701 105.5L22.4307 102.26L44.3701 74.5L29.9482 74.5L33.0273 71.1475L52.4482 50L21.5449 50L23.2656 47.0039L36.7656 23.5039L37.3428 22.5L107.107 22.5Z" stroke="black" stroke-width="4"/>
</svg>
